<svg width="247" height="66" viewBox="0 0 247 66" fill="none" xmlns="http://www.w3.org/2000/svg">
<path d="M53.957 15.2721C54.3294 15.1296 54.7362 15.0417 55.1637 15.0212C55.5918 15.0005 56.0051 15.0488 56.3892 15.1546C56.9206 15.3013 57.5249 14.8635 57.3254 14.1992C56.9672 12.9999 56.0553 12.1639 55.029 12.2136C54.003 12.2629 53.1758 13.1823 52.9333 14.4111C52.7989 15.0913 53.4421 15.4691 53.957 15.2721Z" fill="#3D5CFF"/>
<path d="M69.3266 63.2744C69.9202 62.3475 70.2227 61.2758 70.2227 60.2087C70.2227 57.1518 67.8489 54.3847 63.6666 54.1036C63.6076 54.0884 63.5471 54.0767 63.4858 54.0698C57.8938 48.3227 55.3295 34.4024 56.8503 26.0381C61.9388 25.6402 65.5177 22.6446 66.8546 17.5303C67.4453 15.2692 66.3973 13.527 64.2278 13.1132C63.1636 12.9104 62.457 12.2775 62.0664 11.1789C62.0537 11.1438 62.0402 11.1094 62.0249 11.0757C59.9726 6.51608 56.419 5.95136 54.0632 5.74235C54.0632 5.73359 54.072 5.71542 54.0632 5.71574C53.2115 5.76507 52.1557 5.7615 52.7195 5.13479C54.2235 3.46336 54.4875 2.67373 54.6611 2.06585C55.0435 0.723183 53.6221 -0.153755 52.5573 0.0224762C46.7075 0.99028 40.9726 6.22658 37.9419 13.3255C37.5459 14.2534 36.8722 15.845 36.0299 17.8886C34.9599 15.3137 32.7816 9.10859 26.5043 5.84101C23.7395 4.40131 21.022 3.94921 18.1821 4.12577C15.8118 4.27052 10.884 4.57007 8.22708 10.5389C8.14579 10.6197 7.49937 11.1688 4.70189 11.469C2.98545 11.6537 1.39402 11.6385 1.37783 11.6381C1.37265 11.6381 1.36747 11.6381 1.36196 11.6381C0.619031 11.6381 0.0117995 12.2373 0.00208379 12.9837C-0.0973403 20.7184 3.38186 24.0876 5.9915 25.5247C5.99473 25.5266 5.99797 25.5292 6.00154 25.5312C7.57289 26.4795 9.55813 26.7028 11.3999 26.7028C12.399 26.7028 13.3084 26.6379 13.9862 26.5697C14.497 29.8029 15.4475 42.882 8.98588 54.1072C4.83856 54.4158 2.50356 57.1829 2.50356 60.2087C2.50356 61.2758 2.80604 62.3475 3.39967 63.2744C3.39967 63.2744 4.86577 66 9.34212 66C10.1236 66 22.2559 66 23.9578 66C24.7088 66 25.318 65.3898 25.318 64.6369C25.318 63.8846 24.7088 63.2744 23.9578 63.2744C22.2643 63.2744 10.3814 63.2744 8.89325 63.2744C6.35842 63.2744 5.22363 61.7341 5.22363 60.2087C5.22363 58.2663 6.91643 56.8951 9.51959 56.813C10.7133 57.0784 12.159 57.7571 12.753 59.4538C13.002 60.1656 13.7793 60.5375 14.4869 60.2889C15.1955 60.0396 15.5686 59.262 15.3199 58.5512C14.7071 56.8006 13.4742 55.48 11.7704 54.7034C17.8252 43.6206 17.3673 30.8489 16.7073 26.4769C16.5849 25.6697 16.2691 24.6575 16.2063 24.5166C15.9601 23.9623 15.3636 23.6267 14.7454 23.7289C13.563 23.9227 10.3451 24.2618 8.11664 23.5131C8.05187 23.491 7.98937 23.4683 7.92881 23.4453C5.49114 22.3808 3.87833 20.2881 3.15613 17.3025C4.03896 17.1019 5.31819 16.3805 6.15051 14.0255C8.7174 13.6179 10.1741 12.8636 10.6994 11.6768C11.9537 8.83986 13.7414 7.68739 15.7166 7.19407C16.7384 6.93897 19.371 6.58164 21.6092 8.08366C22.2358 8.50363 22.7398 9.19167 23.0426 10.0706C23.5488 11.5375 23.1828 13.1772 22.0124 14.6866C18.9791 18.5991 18.2135 20.5951 18.4934 23.1908C18.6699 24.8272 19.5598 26.1689 20.9994 26.9686C22.9768 28.0675 25.567 28.1042 27.5432 26.8816C29.6713 25.5652 30.9042 23.222 31.5017 19.2719C31.503 19.2644 31.505 19.2576 31.5063 19.2501C30.9894 17.9247 30.17 16.1033 29.1625 14.8346C29.2409 15.9352 29.3999 17.3233 29.0767 18.7925C28.4264 21.7424 28.0138 23.222 26.3589 24.4274C25.0787 25.3595 23.3862 25.1781 22.3188 24.5848C21.6558 24.2164 21.2792 23.6484 21.1982 22.8981C21.0466 21.4944 21.2034 20.1732 24.1605 16.359C26.0237 13.9561 26.6137 10.9085 25.1953 8.21997C25.5359 8.39458 25.9294 8.62468 26.2993 8.89276V8.89211C26.2993 8.89211 28.1961 10.0962 30.181 12.6585C30.7565 13.4014 32.7742 16.066 34.5716 21.4727C30.4586 31.7083 24.4433 47.7947 24.4433 54.3288C24.4433 60.7647 29.6677 66 36.0898 66C42.5116 66 47.7364 60.7647 47.7364 54.3288C47.7364 50.7912 45.6329 43.2464 41.4849 31.9034C40.5367 29.3115 39.5752 26.7794 38.6735 24.4689L37.2916 28.4103C40.925 37.9569 45.0153 49.8757 45.0153 54.3288C45.0153 59.2614 41.0115 63.2744 36.0898 63.2744C31.1678 63.2744 27.1637 59.2614 27.1637 54.3288C27.1637 47.4224 34.8996 27.9429 37.5025 21.5032C37.5018 21.5019 37.5009 21.5006 37.5005 21.4993C38.9527 17.9062 40.0781 15.2523 40.4431 14.3978C42.3717 9.87907 46.2703 4.99848 51.0193 3.24623C47.4705 6.65239 48.7413 8.43612 50.04 8.43612C51.794 8.43612 52.1483 8.43612 53.5564 8.43612C55.7424 8.61657 58.0247 8.86291 59.5238 12.1506C60.1129 13.7617 61.2159 14.9187 62.6859 15.4941C62.3679 16.2941 62.1224 17.666 63.7025 18.3823C62.5059 21.2133 59.8839 23.8516 54.2041 23.2827C53.4541 23.2067 52.7901 23.7546 52.716 24.5036C52.6412 25.253 53.1865 25.9206 53.934 25.9953C53.9884 26.0008 54.0419 26.0037 54.0963 26.0089C53.3954 30.3569 53.65 36.0476 54.8071 41.4728C56.0099 47.1108 58.045 51.8016 60.6197 54.9426C59.1624 55.7384 58.1008 56.9684 57.5466 58.5512C57.2348 59.4415 57.8983 60.3658 58.8298 60.3658C59.391 60.3658 59.9166 60.015 60.1135 59.4538C60.7042 57.7655 62.1376 57.0859 63.3281 56.8172C68.9513 57.0817 68.7081 63.2744 63.833 63.2744C61.5631 63.2744 50.4542 63.2744 48.2345 63.2744C47.4834 63.2744 46.8746 63.8846 46.8746 64.6369C46.8746 65.3898 47.4834 66 48.2345 66C50.4561 66 59.5309 66 63.833 66C68.1348 66 69.3266 63.2744 69.3266 63.2744Z" fill="#3D5CFF"/>
<path d="M100.535 24.0903H111.281C113.072 24.0903 114.368 24.4996 115.17 25.3184C115.989 26.12 116.398 27.4164 116.398 29.2073V31.7659C116.398 33.5568 115.989 34.8617 115.17 35.6804C114.368 36.4821 113.072 36.8829 111.281 36.8829H105.14V42H100.535V24.0903ZM111.793 29.2073C111.793 28.1839 111.281 27.6722 110.258 27.6722H105.14V33.301H110.258C111.281 33.301 111.793 32.7893 111.793 31.7659V29.2073ZM132.9 42H118.7V24.0903H132.9V27.6722H123.305V31.1262H130.853V34.7082H123.305V38.4181H132.9V42ZM143.639 42H139.034V27.6722H133.661V24.0903H149.012V27.6722H143.639V42Z" fill="#3D5CFF"/>
<path d="M154.004 42H149.015L155.795 24.0903H160.912L167.693 42H162.703L161.552 38.8018H155.156L154.004 42ZM156.307 35.4757H160.401L158.354 29.4632L156.307 35.4757ZM168.971 24.0903H179.717C181.508 24.0903 182.804 24.4996 183.606 25.3184C184.424 26.12 184.834 27.4164 184.834 29.2073V31.7659C184.834 33.5568 184.424 34.8617 183.606 35.6804C182.804 36.4821 181.508 36.8829 179.717 36.8829H173.576V42H168.971V24.0903ZM180.228 29.2073C180.228 28.1839 179.717 27.6722 178.693 27.6722H173.576V33.301H178.693C179.717 33.301 180.228 32.7893 180.228 31.7659V29.2073ZM187.135 24.0903H197.881C199.672 24.0903 200.969 24.4996 201.77 25.3184C202.589 26.12 202.998 27.4164 202.998 29.2073V31.7659C202.998 33.5568 202.589 34.8617 201.77 35.6804C200.969 36.4821 199.672 36.8829 197.881 36.8829H191.741V42H187.135V24.0903ZM198.393 29.2073C198.393 28.1839 197.881 27.6722 196.858 27.6722H191.741V33.301H196.858C197.881 33.301 198.393 32.7893 198.393 31.7659V29.2073Z" fill="#8BEAFF"/>
</svg>
