<svg width="103" height="18" viewBox="0 0 103 18" fill="none" xmlns="http://www.w3.org/2000/svg">
<path d="M0.53512 0.0902711H11.281C13.0719 0.0902711 14.3683 0.499637 15.1699 1.31837C15.9887 2.12004 16.398 3.41636 16.398 5.20734V7.76587C16.398 9.55684 15.9887 10.8617 15.1699 11.6804C14.3683 12.4821 13.0719 12.8829 11.281 12.8829H5.14048V18H0.53512V0.0902711ZM11.7927 5.20734C11.7927 4.18392 11.281 3.67222 10.2575 3.67222H5.14048V9.30099H10.2575C11.281 9.30099 11.7927 8.78928 11.7927 7.76587V5.20734ZM32.8996 18H18.6997V0.0902711H32.8996V3.67222H23.3051V7.12624H30.8527V10.7082H23.3051V14.4181H32.8996V18ZM43.6394 18H39.034V3.67222H33.6611V0.0902711H49.0123V3.67222H43.6394V18Z" fill="#3D5CFF"/>
<path d="M54.0044 18H49.0153L55.7954 0.0902711H60.9125L67.6926 18H62.7035L61.5521 14.8018H55.1558L54.0044 18ZM56.3071 11.4757H60.4008L58.354 5.46319L56.3071 11.4757ZM68.9709 0.0902711H79.7167C81.5077 0.0902711 82.804 0.499637 83.6057 1.31837C84.4244 2.12004 84.8338 3.41636 84.8338 5.20734V7.76587C84.8338 9.55684 84.4244 10.8617 83.6057 11.6804C82.804 12.4821 81.5077 12.8829 79.7167 12.8829H73.5762V18H68.9709V0.0902711ZM80.2284 5.20734C80.2284 4.18392 79.7167 3.67222 78.6933 3.67222H73.5762V9.30099H78.6933C79.7167 9.30099 80.2284 8.78928 80.2284 7.76587V5.20734ZM87.1354 0.0902711H97.8813C99.6723 0.0902711 100.969 0.499637 101.77 1.31837C102.589 2.12004 102.998 3.41636 102.998 5.20734V7.76587C102.998 9.55684 102.589 10.8617 101.77 11.6804C100.969 12.4821 99.6723 12.8829 97.8813 12.8829H91.7408V18H87.1354V0.0902711ZM98.393 5.20734C98.393 4.18392 97.8813 3.67222 96.8579 3.67222H91.7408V9.30099H96.8579C97.8813 9.30099 98.393 8.78928 98.393 7.76587V5.20734Z" fill="#8BEAFF"/>
</svg>
